<svg id="test" width="24" height="24" viewBox="0 0 24 24" fill="none"
  xmlns="http://www.w3.org/2000/svg">
  <path
    d="M6.10701 23.0233C5.14901 23.0233 4.18201 22.7417 3.33701 22.1553L3.15901 22.0317C0.95434 20.5007 0.406006 17.461 1.93701 15.2563L6.58067 9.06033C7.30834 8.01167 8.42134 7.29633 9.70101 7.06567C10.33 6.95034 10.9757 6.96098 11.6006 7.09699C12.2255 7.233 12.8171 7.49167 13.3413 7.858L13.5193 7.98133C14.4283 8.61391 15.0953 9.53657 15.411 10.598C15.4358 10.682 15.4439 10.77 15.4347 10.857C15.4255 10.9441 15.3992 11.0285 15.3574 11.1054C15.3156 11.1824 15.259 11.2503 15.1909 11.3053C15.1229 11.3604 15.0446 11.4015 14.9607 11.4263C14.8767 11.4512 14.7887 11.4592 14.7016 11.45C14.6146 11.4408 14.5302 11.4145 14.4532 11.3727C14.3763 11.3309 14.3084 11.2743 14.2533 11.2063C14.1983 11.1382 14.1572 11.06 14.1323 10.976C13.9069 10.2038 13.4219 9.53293 12.7593 9.07667L12.5813 8.95333C12.2007 8.68723 11.771 8.49933 11.3172 8.40051C10.8634 8.30169 10.3945 8.29393 9.93767 8.37767C9.48044 8.4589 9.04386 8.63 8.65319 8.88106C8.26252 9.13213 7.92551 9.45817 7.66167 9.84033L3.01834 16.036C1.92067 17.6173 2.31867 19.8243 3.91967 20.9363L4.09767 21.06C5.69801 22.1713 7.90534 21.774 9.01734 20.1733L10.436 18.1313C10.5371 17.9864 10.6916 17.8875 10.8655 17.8562C11.0394 17.8249 11.2187 17.8638 11.364 17.9643C11.5091 18.0654 11.6081 18.2198 11.6395 18.3938C11.6708 18.5678 11.6318 18.7471 11.531 18.8923L10.1123 20.934C9.16801 22.294 7.64934 23.0233 6.10701 23.0233Z"
    fill="currentColor" />
  <path
    d="M13.4323 17.0143C12.4733 17.0143 11.5043 16.733 10.658 16.1457L10.4787 16.0207C9.57057 15.3884 8.90427 14.4663 8.589 13.4057C8.53887 13.2361 8.55816 13.0536 8.64261 12.8982C8.72706 12.7429 8.86977 12.6275 9.03933 12.5773C9.20889 12.5272 9.39142 12.5465 9.54676 12.6309C9.70211 12.7154 9.81754 12.8581 9.86766 13.0277C10.0931 13.7996 10.5777 14.4702 11.24 14.9263L11.4193 15.0513C13.019 16.162 15.2263 15.764 16.3383 14.1633L20.9817 7.96667C22.0797 6.38533 21.6817 4.17833 20.0807 3.06633L19.904 2.94467C19.5232 2.67829 19.0932 2.49012 18.6392 2.39108C18.1851 2.29203 17.7158 2.28408 17.2587 2.36767C16.8014 2.4489 16.3649 2.62 15.9742 2.87106C15.5835 3.12213 15.2465 3.44817 14.9827 3.83033L13.5643 5.872C13.5144 5.9439 13.4508 6.00526 13.3772 6.05258C13.3035 6.0999 13.2213 6.13225 13.1352 6.14779C13.049 6.16333 12.9607 6.16175 12.8751 6.14314C12.7896 6.12453 12.7086 6.08926 12.6367 6.03933C12.5648 5.98941 12.5034 5.92581 12.4561 5.85217C12.4088 5.77854 12.3764 5.6963 12.3609 5.61016C12.3453 5.52401 12.3469 5.43566 12.3655 5.35012C12.3841 5.26459 12.4194 5.18357 12.4693 5.11167L13.8877 3.07C14.2509 2.54357 14.7151 2.09446 15.2531 1.74869C15.7912 1.40292 16.3926 1.16737 17.0223 1.05567C17.6515 0.940609 18.2972 0.951452 18.9221 1.08757C19.547 1.22369 20.1387 1.48237 20.663 1.84867L20.8393 1.97033C23.046 3.503 23.594 6.54267 22.0627 8.747L17.4193 14.9437C16.4843 16.2893 14.9713 17.0143 13.4323 17.0143Z"
    fill="currentColor" />
  <path
    d="M17.5867 11.0353C17.5247 11.0355 17.464 11.0183 17.4113 10.9858C17.3586 10.9533 17.316 10.9068 17.2883 10.8514C17.2607 10.796 17.249 10.734 17.2546 10.6723C17.2603 10.6106 17.283 10.5518 17.3203 10.5023L17.503 10.259C17.5573 10.192 17.6354 10.1486 17.721 10.138C17.8066 10.1274 17.893 10.1504 17.962 10.2021C18.031 10.2539 18.0773 10.3303 18.0911 10.4155C18.1049 10.5006 18.0851 10.5878 18.036 10.6587L17.8533 10.902C17.8224 10.9435 17.7822 10.9772 17.7359 11.0004C17.6895 11.0236 17.6384 11.0355 17.5867 11.0353ZM18.349 10.0187C18.2871 10.0188 18.2263 10.0017 18.1736 9.96917C18.1209 9.93666 18.0783 9.8901 18.0507 9.83471C18.023 9.77931 18.0113 9.7173 18.017 9.65563C18.0226 9.59397 18.0454 9.53511 18.0827 9.48567L19.558 7.51767C19.7339 7.26371 19.8579 6.97747 19.9227 6.67542C19.9876 6.37337 19.9921 6.06147 19.936 5.75767C19.8817 5.4515 19.7671 5.15914 19.599 4.89754C19.4309 4.63594 19.2126 4.4103 18.9567 4.23367L18.8423 4.15467C18.7729 4.10302 18.7263 4.02643 18.7123 3.94104C18.6982 3.85566 18.7179 3.76817 18.7672 3.69704C18.8165 3.6259 18.8914 3.57668 18.9763 3.55976C19.0611 3.54284 19.1492 3.55954 19.222 3.60634L19.3367 3.68567C20.0023 4.14801 20.448 4.84167 20.592 5.63901C20.736 6.43634 20.5607 7.24234 20.0987 7.90767L18.6163 9.88567C18.5851 9.92704 18.5447 9.96059 18.4983 9.98368C18.4519 10.0068 18.4008 10.0187 18.349 10.0187Z"
    fill="currentColor" />
</svg>
