<svg xmlns="http://www.w3.org/2000/svg" width="24" height="24" fill="none">
  <path fill="#fafae5"
    d="M21.357 2.643A8.966 8.966 0 0 0 14.975 0c-2.41 0-4.677.939-6.381 2.643A8.966 8.966 0 0 0 5.95 9.025a8.97 8.97 0 0 0 1.256 4.6L.64 20.194c-.412.412-.639.96-.639 1.543 0 .582.227 1.13.64 1.542l.08.082c.413.412.96.639 1.544.639.582 0 1.13-.227 1.542-.64l6.569-6.567a8.969 8.969 0 0 0 4.6 1.256c2.41 0 4.677-.938 6.382-2.643A8.966 8.966 0 0 0 24 9.025c0-2.41-.939-4.677-2.643-6.382ZM2.704 22.26a.619.619 0 0 1-.68.135.62.62 0 0 1-.201-.135l-.082-.082a.618.618 0 0 1-.135-.68.62.62 0 0 1 .135-.201l6.389-6.39c.297.345.619.667.963.964l-6.389 6.389Zm17.55-7.955a7.417 7.417 0 0 1-5.279 2.187 7.417 7.417 0 0 1-5.28-2.187 7.417 7.417 0 0 1-2.186-5.28c0-1.994.777-3.868 2.187-5.279a7.417 7.417 0 0 1 5.28-2.187c1.994 0 3.869.777 5.279 2.187a7.417 7.417 0 0 1 2.187 5.28c0 1.994-.777 3.869-2.187 5.28Z" />
</svg>
